<?xml version="1.0" encoding="utf-8"?>
<!-- Generator: Adobe Illustrator 23.0.5, SVG Export Plug-In . SVG Version: 6.00 Build 0)  -->
<svg version="1.1" id="Capa_1" xmlns="http://www.w3.org/2000/svg" xmlns:xlink="http://www.w3.org/1999/xlink" x="0px" y="0px"
	 viewBox="0 0 400 400" style="enable-background:new 0 0 400 400;" xml:space="preserve">
<style type="text/css">
	.st0{fill:#F7931E;stroke:#AA5E04;stroke-width:2;}
	.st1{fill:#F7931E;stroke:#AA5E04;stroke-width:1.2669;}
	.st2{fill:#F7931E;stroke:#AA5E04;stroke-width:1.4623;}
	.st3{fill:#F7931E;stroke:#AA5E04;stroke-width:2.0296;}
</style>
<g>
	<rect x="5.15" y="2.6" class="st0" width="170.27" height="61.79"/>
	<rect x="5.15" y="3.12" class="st0" width="53.11" height="284.35"/>
	<rect x="125" y="64.1" class="st1" width="51.03" height="41.19"/>
	<rect x="56.68" y="122" class="st2" width="56.78" height="61.79"/>
	<rect x="129.08" y="214.69" class="st0" width="51.55" height="102.64"/>
	<path class="st0" d="M180.67,310.9c0,83.06-0.42,84.99,0,84.08c0.93-2.04-145.51-108.02-176-108.02c0-20.04,0-16.14,0-36.18h176
		V310.9z"/>
	<rect x="340.48" y="4.69" class="st0" width="51.03" height="102.64"/>
	<rect x="344.65" y="215.1" class="st0" width="51.03" height="37.67"/>
	<rect x="212.68" y="2.6" class="st3" width="178" height="61.79"/>
	<rect x="211.68" y="3.1" class="st0" width="58.49" height="304.97"/>
	<path class="st0" d="M211.68,312.92c0,84.02,0.44,85.97,0,85.05c-0.98-2.06,151.64-116.08,183.51-116.08
		c0-20.27,0.52-9.52,0.52-29.79H211.68V312.92z"/>
</g>
</svg>
